# Made in Blockbench 5.0.3
mtllib leaf2_small.mtl

o cuboid
v 0.07355432256636169 0.0072773062947597555 0
v 0.0711257816929627 0.023105987042627313 -0.125
v 0.027384714939735585 -0.001051168222570481 0
v 0.04417297880294961 0.010537688646272025 -0.09375
v 0.0711257816929627 0.023105987042627313 0.125
v 0.04417297880294961 0.010537688646272025 0.09375
v 0.13525499459495877 0.026317987609702637 0
v 0.12405205930573124 0.03972210182934874 -0.125
v 0.12405205930573124 0.03972210182934874 0.125
v 0.22876555126036693 0.02626960582526569 0
v 0.2175626159711394 0.03967372004491178 -0.125
v 0.2175626159711394 0.03967372004491178 0.125
v 0.32274508606981467 -0.006648487485307358 0
v 0.27064344694672504 0.020773003446771632 -0.09375
v 0.2750311655094422 0.02198517393005263 0.078125
vt 0 0.5
vt 0.5 0.5
vt 0.5 1
vt 0 1
vt 0.0625 0.9375
vt 0.25 0.9375
vt 0.25 1
vt 0.0625 1
vt 0.1875 0.75
vt 0.1875 1
vt 0.125 1
vt 0.125 0.75
vt 0.1875 0.75
vt 0.1875 1
vt 0.125 1
vt 0.125 0.75
vt 0.1875 0.75
vt 0.1875 1
vt 0.125 1
vt 0.125 0.75
vt 0.1875 0.75
vt 0.1875 1
vt 0.125 1
vt 0.125 0.75
vt 0.1875 0.75
vt 0.1875 1
vt 0.125 1
vt 0.125 0.75
vt 0.1875 0.75
vt 0.1875 1
vt 0.125 1
vt 0.125 0.75
vn -0.17608535506415116 0.9761441588360749 0.12702963788873775
vn -0.2958684490396276 0.9469277364677153 -0.12565716362792187
vn -0.2970661768522227 0.9462264282146792 0.12809072221864795
vn -0.2924566701164304 0.9476957671293078 -0.12783516366634967
vn 0.0005144469655725681 0.9943044202555481 0.10657605361711442
vn 0.0005144469655724017 0.9943044202555482 -0.10657605361711447
vn 0.26123159993614264 0.9558725023654815 0.13440911582313067
vn 0.3272009011389103 0.9341424543684042 -0.14253927613278755
usemtl none
f 3/1/1 1/2/1 2/3/1 4/4/1
f 6/5/2 5/6/2 1/7/2 3/8/2
f 7/9/3 8/10/3 2/11/3 1/12/3
f 9/13/4 7/14/4 1/15/4 5/16/4
f 10/17/5 11/18/5 8/19/5 7/20/5
f 12/21/6 10/22/6 7/23/6 9/24/6
f 13/25/7 14/26/7 11/27/7 10/28/7
f 15/29/8 13/30/8 10/31/8 12/32/8