# Made in Blockbench 5.0.3
mtllib leaf2_tiny.mtl

o cuboid
v 0.037400880203883616 0.012328264852766821 0
v 0.03914754804958316 0.014199514817324989 -0.0625
v 0.0153420294136929 0.002864529378808385 0
v 0.024892907952410417 0.007552466975770028 -0.046875
v 0.03914754804958316 0.014199514817324989 0.0625
v 0.024892907952410417 0.007552466975770028 0.046875
v 0.06829381146877314 0.0261275955665074 0
v 0.0656978326566143 0.026077698847185943 -0.0625
v 0.0656978326566143 0.026077698847185943 0.0625
v 0.10994804713943637 0.042831474192686625 0
v 0.1073520683272775 0.04278157747336517 -0.0625
v 0.1073520683272775 0.04278157747336517 0.0625
v 0.1459372080212303 0.05483210784568954 0
v 0.12762413172135625 0.049514807592918056 -0.046875
v 0.12979566718111077 0.050475457679151736 0.0390625
vt 0 0.5
vt 0.5 0.5
vt 0.5 1
vt 0 1
vt 0.0625 0.9375
vt 0.25 0.9375
vt 0.25 1
vt 0.0625 1
vt 0.1875 0.75
vt 0.1875 1
vt 0.125 1
vt 0.125 0.75
vt 0.1875 0.75
vt 0.1875 1
vt 0.125 1
vt 0.125 0.75
vt 0.1875 0.75
vt 0.1875 1
vt 0.125 1
vt 0.125 0.75
vt 0.1875 0.75
vt 0.1875 1
vt 0.125 1
vt 0.125 0.75
vt 0.1875 0.75
vt 0.1875 1
vt 0.125 1
vt 0.125 0.75
vt 0.1875 0.75
vt 0.1875 1
vt 0.125 1
vt 0.125 0.75
vn -0.39421556833354554 0.9188699773962109 0.016493948082461532
vn -0.40817727459223674 0.9127638445684256 -0.015920947054769714
vn -0.4083244399470378 0.9126925517694109 0.016231379688107225
vn -0.40779054607489973 0.912931617605152 -0.016209013195612552
vn -0.37216053935351623 0.9280516914949813 0.014717026241872015
vn -0.3721605393535162 0.9280516914949816 -0.014717026241872013
vn -0.3303947658674467 0.9435854227638723 0.022041974387962793
vn -0.31623040397593494 0.9483554963413774 -0.024903496949564185
usemtl none
f 3/1/1 1/2/1 2/3/1 4/4/1
f 6/5/2 5/6/2 1/7/2 3/8/2
f 7/9/3 8/10/3 2/11/3 1/12/3
f 9/13/4 7/14/4 1/15/4 5/16/4
f 10/17/5 11/18/5 8/19/5 7/20/5
f 12/21/6 10/22/6 7/23/6 9/24/6
f 13/25/7 14/26/7 11/27/7 10/28/7
f 15/29/8 13/30/8 10/31/8 12/32/8