# Made in Blockbench 5.0.3
mtllib leafL2.mtl

o cuboid
v -0.0946343160016613 0.17448812760509258 -0.004032943841190821
v -0.08128239922684218 0.20534078962315835 0.182934710885439
v -0.0243705852083351 0.16758826779714472 -0.006575837081477219
v -0.04329853696407612 0.18675704716760458 0.13473513776545312
v -0.0950487665899341 0.20326121074086664 -0.19180674996630154
v -0.05362331248639504 0.1851973630058858 -0.14632095787335228
v -0.18718593922181012 0.19838384447696364 -0.0007656069035267877
v -0.16062343537071475 0.2263637558686341 0.18573269040842674
v -0.17438980273380666 0.2242841769863424 -0.1890087704433138
v -0.3323796868116578 0.18097761129026219 0.004664771946136448
v -0.30581718296056243 0.20895752268193263 0.19116306925808996
v -0.3195835503236544 0.20687794379964092 -0.18357839159365058
v -0.48390560704991376 0.10250925763652322 0.010666623486942447
v -0.39317473919606793 0.16380564949204382 0.1477154297310082
v -0.4092444102963317 0.1638123143236659 -0.10968464589722528
vt 0 0.5
vt 0.5 0.5
vt 0.5 1
vt 0 1
vt 0.0625 0.9375
vt 0.25 0.9375
vt 0.25 1
vt 0.0625 1
vt 0.1875 0.75
vt 0.1875 1
vt 0.125 1
vt 0.125 0.75
vt 0.1875 0.75
vt 0.1875 1
vt 0.125 1
vt 0.125 0.75
vt 0.1875 0.75
vt 0.1875 1
vt 0.125 1
vt 0.125 0.75
vt 0.1875 0.75
vt 0.1875 1
vt 0.125 1
vt 0.125 0.75
vt 0.1875 0.75
vt 0.1875 1
vt 0.125 1
vt 0.125 0.75
vt 0.1875 0.75
vt 0.1875 1
vt 0.125 1
vt 0.125 0.75
vn 0.09029433483951785 0.9815704792192562 -0.168423060835412
vn 0.25650294658451755 0.9554767056970579 0.1458441060302344
vn 0.24617041208165477 0.9527415459726994 -0.17799908649512516
vn 0.25212898714146903 0.9562000951642415 0.14870222544034842
vn -0.12281467697006465 0.9838631829370907 -0.1301145356277898
vn -0.11333773796670227 0.9852947909786571 0.1278621602465543
vn -0.397857077542567 0.9063919420001662 -0.14199786380947887
vn -0.44791770596268576 0.8778987920328571 0.16930280456145813
usemtl none
f 3/1/1 1/2/1 2/3/1 4/4/1
f 6/5/2 5/6/2 1/7/2 3/8/2
f 7/9/3 8/10/3 2/11/3 1/12/3
f 9/13/4 7/14/4 1/15/4 5/16/4
f 10/17/5 11/18/5 8/19/5 7/20/5
f 12/21/6 10/22/6 7/23/6 9/24/6
f 13/25/7 14/26/7 11/27/7 10/28/7
f 15/29/8 13/30/8 10/31/8 12/32/8