# Made in Blockbench 5.0.3
mtllib sproutTrunk.mtl

o cylinder
v -4.85722573273506e-17 0 -4.85722573273506e-17
v -5.0306980803327406e-17 0.3125 -5.0306980803327406e-17
v 0.06249999999999993 0 0.062499999999999944
v 0.04687499999999994 0.3125 0.046874999999999944
v 0.062499999999999944 0 -0.06250000000000003
v 0.046874999999999944 0.3125 -0.046875000000000035
v -0.06250000000000003 0 -0.06250000000000006
v -0.046875000000000035 0.3125 -0.046875000000000056
v -0.06250000000000006 0 0.06249999999999993
v -0.046875000000000056 0.3125 0.04687499999999994
vt 5.551115123125783e-17 0.29289321881345254
vt 0.7071067811865475 1
vt 0 1
vt 0 0.5
vt 1 0.5
vt 1 1
vt 0 1
vt 5.551115123125783e-17 0.29289321881345254
vt 0.7071067811865475 1
vt 0 1
vt 0 1
vt 0.7071067811865475 0.29289321881345254
vt 0.7071067811865475 1
vt 0 0.5
vt 1 0.5
vt 1 1
vt 0 1
vt 0.7071067811865475 0.29289321881345254
vt 0 1
vt 5.551115123125783e-17 0.29289321881345254
vt 0.7071067811865475 1
vt 0 0.29289321881345254
vt 0.7071067811865475 0.29289321881345254
vt 0 0.5
vt 1 0.5
vt 1 1
vt 0 1
vt 0.7071067811865475 1
vt 0 0.29289321881345254
vt 0.7071067811865475 0.29289321881345254
vt 0.7071067811865475 0.29289321881345254
vt 0 1
vt 5.551115123125783e-17 0.29289321881345254
vt 0 0.5
vt 1 0.5
vt 1 1
vt 0 1
vt 0 1
vt 0.7071067811865475 0.29289321881345254
vt 0.7071067811865475 1
vn 0 -1 0
vn 0.9987523388778448 0.04993761694389223 1.1088378425204104e-16
vn 0 1 0
vn 0 -1 0
vn 2.2176756850408208e-16 0.04993761694389223 -0.9987523388778448
vn 0 1 0
vn 0 -1 0
vn -0.9987523388778448 0.04993761694389223 -2.2176756850408208e-16
vn 0 1 0
vn 0 -1 0
vn -1.1088378425204104e-16 0.04993761694389224 0.9987523388778448
vn 0 1 0
usemtl none
f 5/1/1 3/2/1 1/3/1
f 3/4/2 5/5/2 6/6/2 4/7/2
f 4/8/3 6/9/3 2/10/3
f 7/11/4 5/12/4 1/13/4
f 5/14/5 7/15/5 8/16/5 6/17/5
f 6/18/6 8/19/6 2/20/6
f 9/21/7 7/22/7 1/23/7
f 7/24/8 9/25/8 10/26/8 8/27/8
f 8/28/9 10/29/9 2/30/9
f 3/31/10 9/32/10 1/33/10
f 9/34/11 3/35/11 4/36/11 10/37/11
f 10/38/12 4/39/12 2/40/12