# Made in Blockbench 5.0.3
mtllib Trunk.mtl

o cylinder
v -5.0306980803327406e-17 0 -5.0306980803327406e-17
v 0.04687499999999993 0 0.046874999999999944
v 0.10937499999999994 0.1875 0.046874999999999944
v 0.046874999999999944 0 -0.046875000000000035
v 0.10937499999999994 0.1875 -0.046875000000000035
v -0.046875000000000035 0 -0.046875000000000056
v 0.015624999999999965 0.1875 -0.046875000000000056
v -0.046875000000000056 0 0.04687499999999993
v 0.015624999999999944 0.1875 0.04687499999999994
v 0.10937499999999994 0.375 0.046874999999999944
v 0.10937499999999994 0.375 -0.046875000000000035
v 0.015624999999999965 0.375 -0.046875000000000056
v 0.015624999999999944 0.375 0.04687499999999994
v 0.10937499999999994 0.5625 -0.015625000000000056
v 0.10937499999999994 0.5625 -0.10937500000000003
v 0.015624999999999965 0.5625 -0.10937500000000006
v 0.015624999999999944 0.5625 -0.015625000000000062
v 0.046874999999999944 0.75 -0.015625000000000056
v 0.046874999999999944 0.75 -0.10937500000000003
v -0.046875000000000035 0.75 -0.10937500000000006
v -0.046875000000000056 0.75 -0.015625000000000062
v 0.046874999999999944 0.9375 0.046874999999999944
v 0.046874999999999944 0.9375 -0.04687500000000003
v -4.85722573273506e-17 0.9375 -5.551115123125783e-17
v -0.046875000000000035 0.9375 -0.046875000000000056
v -0.046875000000000056 0.9375 0.04687499999999994
vt 5.551115123125783e-17 0.29289321881345254
vt 0.7071067811865475 1
vt 0 1
vt 0 0.5
vt 1 0.5
vt 1 1
vt 0 1
vt 5.551115123125783e-17 0.29289321881345254
vt 0.7071067811865475 1
vt 0 1
vt 0 1
vt 0.7071067811865475 0.29289321881345254
vt 0.7071067811865475 1
vt 0 0.5
vt 1 0.5
vt 1 1
vt 0 1
vt 0.7071067811865475 0.29289321881345254
vt 0 1
vt 5.551115123125783e-17 0.29289321881345254
vt 0.7071067811865475 1
vt 0 0.29289321881345254
vt 0.7071067811865475 0.29289321881345254
vt 0 0.5
vt 1 0.5
vt 1 1
vt 0 1
vt 0.7071067811865475 1
vt 0 0.29289321881345254
vt 0.7071067811865475 0.29289321881345254
vt 0.7071067811865475 0.29289321881345254
vt 0 1
vt 5.551115123125783e-17 0.29289321881345254
vt 0 0.5
vt 1 0.5
vt 1 1
vt 0 1
vt 0 1
vt 0.7071067811865475 0.29289321881345254
vt 0.7071067811865475 1
vt 0.21875 0.875
vt 0.125 0.875
vt 0.125 0.8125
vt 0.21875 0.8125
vt 0.21875 0.875
vt 0.125 0.875
vt 0.125 0.8125
vt 0.21875 0.8125
vt 0.21875 0.875
vt 0.125 0.875
vt 0.125 0.8125
vt 0.21875 0.8125
vt 0.21875 0.875
vt 0.125 0.875
vt 0.125 0.8125
vt 0.21875 0.8125
vt 0.21875 0.875
vt 0.125 0.875
vt 0.125 0.8125
vt 0.21875 0.8125
vt 0.21875 0.875
vt 0.125 0.875
vt 0.125 0.8125
vt 0.21875 0.8125
vt 0.21875 0.875
vt 0.125 0.875
vt 0.125 0.8125
vt 0.21875 0.8125
vt 0.21875 0.875
vt 0.125 0.875
vt 0.125 0.8125
vt 0.21875 0.8125
vt 0.21875 0.875
vt 0.125 0.875
vt 0.125 0.8125
vt 0.21875 0.8125
vt 0.21875 0.875
vt 0.125 0.875
vt 0.125 0.8125
vt 0.21875 0.8125
vt 0.21875 0.875
vt 0.125 0.875
vt 0.125 0.8125
vt 0.21875 0.8125
vt 0.21875 0.875
vt 0.125 0.875
vt 0.125 0.8125
vt 0.21875 0.8125
vt 0.21875 0.875
vt 0.125 0.875
vt 0.125 0.8125
vt 0.21875 0.8125
vt 0.21875 0.875
vt 0.125 0.875
vt 0.125 0.8125
vt 0.21875 0.8125
vt 0.21875 0.875
vt 0.125 0.875
vt 0.125 0.8125
vt 0.21875 0.8125
vt 0.21875 0.875
vt 0.125 0.875
vt 0.125 0.8125
vt 0.21875 0.8125
vn 0 -1 0
vn 0.948683298050514 -0.316227766016838 1.4043333874306812e-16
vn 0 1 0
vn 0 -1 0
vn 2.220446049250314e-16 -7.401486830834378e-17 -1
vn 0 1 0
vn 0 -1 0
vn -0.948683298050514 0.316227766016838 -2.1065000811460215e-16
vn 0 1 0
vn 0 -1 0
vn -1.4802973661668758e-16 4.934324553889587e-17 1
vn 0 1 0
vn 1 0 0
vn 2.220446049250314e-16 0 -1
vn -1 0 -2.220446049250313e-16
vn -7.401486830834377e-17 0 1
vn 1 0 0
vn 2.8086667748613624e-16 -0.316227766016838 -0.948683298050514
vn -1 -7.401486830834378e-17 -2.220446049250313e-16
vn -7.021666937153403e-17 0.316227766016838 0.948683298050514
vn 0.948683298050514 0.316227766016838 0
vn 2.960594732333752e-16 9.868649107779174e-17 -1
vn -0.9486832980505138 -0.316227766016838 -2.1065000811460205e-16
vn -7.401486830834377e-17 -2.4671622769447922e-17 1
vn 1 0 0
vn 2.8086667748613624e-16 0.316227766016838 -0.948683298050514
vn -1 7.401486830834377e-17 -2.220446049250313e-16
vn -7.021666937153403e-17 -0.31622776601683794 0.948683298050514
usemtl none
f 4/1/1 2/2/1 1/3/1
f 2/4/2 4/5/2 5/6/2 3/7/2
f 22/8/3 23/9/3 24/10/3
f 6/11/4 4/12/4 1/13/4
f 4/14/5 6/15/5 7/16/5 5/17/5
f 23/18/6 25/19/6 24/20/6
f 8/21/7 6/22/7 1/23/7
f 6/24/8 8/25/8 9/26/8 7/27/8
f 25/28/9 26/29/9 24/30/9
f 2/31/10 8/32/10 1/33/10
f 8/34/11 2/35/11 3/36/11 9/37/11
f 26/38/12 22/39/12 24/40/12
f 11/41/13 10/42/13 3/43/13 5/44/13
f 12/45/14 11/46/14 5/47/14 7/48/14
f 13/49/15 12/50/15 7/51/15 9/52/15
f 10/53/16 13/54/16 9/55/16 3/56/16
f 15/57/17 14/58/17 10/59/17 11/60/17
f 16/61/18 15/62/18 11/63/18 12/64/18
f 17/65/19 16/66/19 12/67/19 13/68/19
f 14/69/20 17/70/20 13/71/20 10/72/20
f 19/73/21 18/74/21 14/75/21 15/76/21
f 20/77/22 19/78/22 15/79/22 16/80/22
f 21/81/23 20/82/23 16/83/23 17/84/23
f 18/85/24 21/86/24 17/87/24 14/88/24
f 23/89/25 22/90/25 18/91/25 19/92/25
f 25/93/26 23/94/26 19/95/26 20/96/26
f 26/97/27 25/98/27 20/99/27 21/100/27
f 22/101/28 26/102/28 21/103/28 18/104/28